<svg xmlns="http://www.w3.org/2000/svg" xmlns:se="http://svg-edit.googlecode.com" xmlns:xlink="http://www.w3.org/1999/xlink" xmlns:dc="http://purl.org/dc/elements/1.1/" xmlns:cc="http://creativecommons.org/ns#" xmlns:rdf="http://www.w3.org/1999/02/22-rdf-syntax-ns#" xmlns:inkscape="http://www.inkscape.org/namespaces/inkscape" width="777" height="480" style="">                                    <title>my vector image</title>                                    <!-- Created with Vector Paint - http://www.vectorpaint.yaks.com/ https://chrome.google.com/webstore/detail/hnbpdiengicdefcjecjbnjnoifekhgdo -->                                    <rect id="backgroundrect" width="100%" height="100%" x="0" y="0" fill="#FFFFFF" stroke="none"/>                                <g class="currentLayer" style=""><title>Layer 1</title><path fill="#ffffff" stroke="#ffffff" stroke-width="2" stroke-linejoin="round" stroke-dashoffset="" fill-rule="nonzero" marker-start="" marker-mid="" marker-end="" id="svg_1" d="M 522.9275939877449 200.28431065360843 L 523.5037803511211 302.8614239811492 C 523.7671872719645 259.2037686020917 481.96297550462305 223.5587401886233 430.1314688993214 223.24601662527493 C 378.2999522942018 222.93329300159303 336.06868360663907 258.0712963135981 335.8052766857957 301.72895169265564 L 336.44995381943045 165.5285422952087 L 419.08473539175054 155.29252095069455 C 419.3481523124118 111.63486563197063 418.0810505539481 155.8173649165222 469.9125571592498 156.13008847987055 C 521.7440637645514 156.4428120432189 523.1910008482546 156.62666527436886 522.9275939877449 200.28431065360843 z" style="color: rgb(0, 0, 0);" class="selected" stroke-opacity="1" fill-opacity="1" opacity="1"/></g><defs><marker id="DotL" refX="0" refY="0" orient="auto" inkscape:stockid="DotL" overflow="visible">
            <path transform="scale(.8) translate(7.4 1)" d="M-2.5-1c0 2.76-2.24 5-5 5s-5-2.24-5-5 2.24-5 5-5 5 2.24 5 5z" fill-rule="evenodd" stroke="#000" stroke-width="1pt" style="fill: rgb(255, 255, 255); stroke: rgb(255, 255, 255); stroke-dasharray: none;"/>
        </marker></defs></svg>