<svg width="140" height="48" viewBox="0 0 140 48" fill="none" xmlns="http://www.w3.org/2000/svg">
<mask id="path-1-inside-1_0_85" fill="white">
<path fill-rule="evenodd" clip-rule="evenodd" d="M12.1488 0.75301C12.6972 0.267828 13.4042 0 14.1365 0H54C55.6569 0 57 1.34315 57 3V14C57 15.6569 58.3431 17 60 17H137C138.657 17 140 18.3431 140 20V45C140 46.6569 138.657 48 137 48H3C1.34314 48 0 46.6569 0 45V28V17V12.8515C0 11.9921 0.368576 11.1739 1.01228 10.6045L12.1488 0.75301Z"/>
</mask>
<path fill-rule="evenodd" clip-rule="evenodd" d="M12.1488 0.75301C12.6972 0.267828 13.4042 0 14.1365 0H54C55.6569 0 57 1.34315 57 3V14C57 15.6569 58.3431 17 60 17H137C138.657 17 140 18.3431 140 20V45C140 46.6569 138.657 48 137 48H3C1.34314 48 0 46.6569 0 45V28V17V12.8515C0 11.9921 0.368576 11.1739 1.01228 10.6045L12.1488 0.75301Z" fill="#FF2140" fill-opacity="0.05"/>
<path d="M1.01228 10.6045L1.67485 11.3535L1.01228 10.6045ZM12.1488 0.75301L12.8113 1.50201L12.1488 0.75301ZM54 1H14.1365V-1H54V1ZM56 14V3H58V14H56ZM137 18H60V16H137V18ZM139 45V20H141V45H139ZM3 47H137V49H3V47ZM1 28V45H-1V28H1ZM1 17V28H-1V17H1ZM1 12.8515V17H-1V12.8515H1ZM12.8113 1.50201L1.67485 11.3535L0.349701 9.85553L11.4862 0.00401377L12.8113 1.50201ZM-1 12.8515C-1 11.7056 -0.50856 10.6148 0.349701 9.85553L1.67485 11.3535C1.24571 11.7331 1 12.2786 1 12.8515H-1ZM3 49C0.790863 49 -1 47.2091 -1 45H1C1 46.1046 1.89543 47 3 47V49ZM141 45C141 47.2091 139.209 49 137 49V47C138.105 47 139 46.1046 139 45H141ZM137 16C139.209 16 141 17.7909 141 20H139C139 18.8954 138.105 18 137 18V16ZM58 14C58 15.1046 58.8954 16 60 16V18C57.7909 18 56 16.2091 56 14H58ZM14.1365 1C13.6483 1 13.177 1.17855 12.8113 1.50201L11.4862 0.00401377C12.2175 -0.642897 13.1601 -1 14.1365 -1V1ZM54 -1C56.2091 -1 58 0.790861 58 3H56C56 1.89543 55.1046 1 54 1V-1Z" fill="#FF2140" mask="url(#path-1-inside-1_0_85)"/>
<path d="M49.0568 36V27.2727H50.1136V31.1591H54.767V27.2727H55.8239V36H54.767V32.0966H50.1136V36H49.0568ZM59.7294 36.1534C59.3146 36.1534 58.9382 36.0753 58.6001 35.919C58.2621 35.7599 57.9936 35.5312 57.7947 35.233C57.5959 34.9318 57.4964 34.5682 57.4964 34.142C57.4964 33.767 57.5703 33.4631 57.718 33.2301C57.8658 32.9943 58.0632 32.8097 58.3104 32.6761C58.5575 32.5426 58.8303 32.4432 59.1286 32.3778C59.4297 32.3097 59.7322 32.2557 60.0362 32.2159C60.4339 32.1648 60.7564 32.1264 61.0036 32.1009C61.2536 32.0724 61.4354 32.0256 61.549 31.9602C61.6655 31.8949 61.7237 31.7812 61.7237 31.6193V31.5852C61.7237 31.1648 61.6087 30.8381 61.3786 30.6051C61.1513 30.3722 60.8061 30.2557 60.343 30.2557C59.8629 30.2557 59.4865 30.3608 59.2138 30.571C58.9411 30.7812 58.7493 31.0057 58.6385 31.2443L57.6839 30.9034C57.8544 30.5057 58.0817 30.196 58.3658 29.9744C58.6527 29.75 58.9652 29.5937 59.3033 29.5057C59.6442 29.4148 59.9794 29.3693 60.3089 29.3693C60.5192 29.3693 60.7607 29.3949 61.0334 29.446C61.3089 29.4943 61.5746 29.5952 61.8303 29.7486C62.0888 29.902 62.3033 30.1335 62.4737 30.4432C62.6442 30.7528 62.7294 31.1676 62.7294 31.6875V36H61.7237V35.1136H61.6726C61.6044 35.2557 61.4908 35.4077 61.3317 35.5696C61.1726 35.7315 60.9609 35.8693 60.6967 35.983C60.4325 36.0966 60.1101 36.1534 59.7294 36.1534ZM59.8828 35.25C60.2805 35.25 60.6158 35.1719 60.8885 35.0156C61.1641 34.8594 61.3714 34.6577 61.5107 34.4105C61.6527 34.1634 61.7237 33.9034 61.7237 33.6307V32.7102C61.6811 32.7614 61.5874 32.8082 61.4425 32.8509C61.3004 32.8906 61.1357 32.9261 60.9482 32.9574C60.7635 32.9858 60.5831 33.0114 60.407 33.0341C60.2337 33.054 60.093 33.071 59.9851 33.0852C59.7237 33.1193 59.4794 33.1747 59.2521 33.2514C59.0277 33.3253 58.8459 33.4375 58.7067 33.5881C58.5703 33.7358 58.5021 33.9375 58.5021 34.1932C58.5021 34.5426 58.6314 34.8068 58.8899 34.9858C59.1513 35.1619 59.4822 35.25 59.8828 35.25ZM64.565 36V29.4545H69.7127V36H68.707V30.392H65.5707V36H64.565ZM72.555 34.517L75.7085 29.4545H76.8675V36H75.8619V30.9375L72.7255 36H71.5494V29.4545H72.555V34.517ZM81.3686 36.1364C80.755 36.1364 80.2266 35.9915 79.7834 35.7017C79.3402 35.4119 78.9993 35.0128 78.7607 34.5043C78.522 33.9957 78.4027 33.4148 78.4027 32.7614C78.4027 32.0966 78.5249 31.5099 78.7692 31.0014C79.0163 30.4901 79.3601 30.0909 79.8004 29.804C80.2436 29.5142 80.7607 29.3693 81.3516 29.3693C81.8118 29.3693 82.2266 29.4545 82.5959 29.625C82.9652 29.7955 83.2678 30.0341 83.5036 30.3409C83.7393 30.6477 83.8857 31.0057 83.9425 31.4148H82.9368C82.8601 31.1165 82.6896 30.8523 82.4254 30.6222C82.1641 30.3892 81.8118 30.2727 81.3686 30.2727C80.9766 30.2727 80.6328 30.375 80.3374 30.5795C80.0447 30.7812 79.8161 31.0668 79.6513 31.4361C79.4893 31.8026 79.4084 32.233 79.4084 32.7273C79.4084 33.233 79.4879 33.6733 79.647 34.0483C79.8089 34.4233 80.0362 34.7145 80.3288 34.9219C80.6243 35.1293 80.9709 35.233 81.3686 35.233C81.63 35.233 81.8672 35.1875 82.0803 35.0966C82.2933 35.0057 82.4737 34.875 82.6214 34.7045C82.7692 34.5341 82.8743 34.3295 82.9368 34.0909H83.9425C83.8857 34.4773 83.745 34.8253 83.5206 35.1349C83.299 35.4418 83.005 35.6861 82.6385 35.8679C82.2749 36.0469 81.8516 36.1364 81.3686 36.1364ZM87.3388 36.1534C86.924 36.1534 86.5476 36.0753 86.2095 35.919C85.8714 35.7599 85.603 35.5312 85.4041 35.233C85.2053 34.9318 85.1058 34.5682 85.1058 34.142C85.1058 33.767 85.1797 33.4631 85.3274 33.2301C85.4751 32.9943 85.6726 32.8097 85.9197 32.6761C86.1669 32.5426 86.4396 32.4432 86.7379 32.3778C87.0391 32.3097 87.3416 32.2557 87.6456 32.2159C88.0433 32.1648 88.3658 32.1264 88.6129 32.1009C88.8629 32.0724 89.0447 32.0256 89.1584 31.9602C89.2749 31.8949 89.3331 31.7812 89.3331 31.6193V31.5852C89.3331 31.1648 89.218 30.8381 88.9879 30.6051C88.7607 30.3722 88.4155 30.2557 87.9524 30.2557C87.4723 30.2557 87.0959 30.3608 86.8232 30.571C86.5504 30.7812 86.3587 31.0057 86.2479 31.2443L85.2933 30.9034C85.4638 30.5057 85.6911 30.196 85.9751 29.9744C86.2621 29.75 86.5746 29.5937 86.9126 29.5057C87.2536 29.4148 87.5888 29.3693 87.9183 29.3693C88.1286 29.3693 88.37 29.3949 88.6428 29.446C88.9183 29.4943 89.1839 29.5952 89.4396 29.7486C89.6982 29.902 89.9126 30.1335 90.0831 30.4432C90.2536 30.7528 90.3388 31.1676 90.3388 31.6875V36H89.3331V35.1136H89.282C89.2138 35.2557 89.1001 35.4077 88.9411 35.5696C88.782 35.7315 88.5703 35.8693 88.3061 35.983C88.0419 36.0966 87.7195 36.1534 87.3388 36.1534ZM87.4922 35.25C87.8899 35.25 88.2251 35.1719 88.4979 35.0156C88.7734 34.8594 88.9808 34.6577 89.12 34.4105C89.2621 34.1634 89.3331 33.9034 89.3331 33.6307V32.7102C89.2905 32.7614 89.1967 32.8082 89.0518 32.8509C88.9098 32.8906 88.745 32.9261 88.5575 32.9574C88.3729 32.9858 88.1925 33.0114 88.0163 33.0341C87.843 33.054 87.7024 33.071 87.5945 33.0852C87.3331 33.1193 87.0888 33.1747 86.8615 33.2514C86.6371 33.3253 86.4553 33.4375 86.3161 33.5881C86.1797 33.7358 86.1115 33.9375 86.1115 34.1932C86.1115 34.5426 86.2408 34.8068 86.4993 34.9858C86.7607 35.1619 87.0916 35.25 87.4922 35.25ZM91.2837 30.392V29.4545H96.6019V30.392H94.4542V36H93.4485V30.392H91.2837ZM98.9382 31.8239H100.813C101.58 31.8239 102.167 32.0185 102.573 32.4077C102.979 32.7969 103.183 33.2898 103.183 33.8864C103.183 34.2784 103.092 34.6349 102.91 34.956C102.728 35.2741 102.461 35.5284 102.109 35.7188C101.756 35.9062 101.325 36 100.813 36H98.0689V29.4545H99.0746V35.0625H100.813C101.211 35.0625 101.538 34.9574 101.793 34.7472C102.049 34.5369 102.177 34.267 102.177 33.9375C102.177 33.5909 102.049 33.3082 101.793 33.0895C101.538 32.8707 101.211 32.7614 100.813 32.7614H98.9382V31.8239ZM112.469 32.267V33.2045H108.855V32.267H112.469ZM109.094 29.4545V36H108.088V29.4545H109.094ZM113.236 29.4545V36H112.23V29.4545H113.236ZM116.999 36.1534C116.584 36.1534 116.208 36.0753 115.87 35.919C115.532 35.7599 115.263 35.5312 115.064 35.233C114.865 34.9318 114.766 34.5682 114.766 34.142C114.766 33.767 114.84 33.4631 114.988 33.2301C115.135 32.9943 115.333 32.8097 115.58 32.6761C115.827 32.5426 116.1 32.4432 116.398 32.3778C116.699 32.3097 117.002 32.2557 117.306 32.2159C117.703 32.1648 118.026 32.1264 118.273 32.1009C118.523 32.0724 118.705 32.0256 118.819 31.9602C118.935 31.8949 118.993 31.7812 118.993 31.6193V31.5852C118.993 31.1648 118.878 30.8381 118.648 30.6051C118.421 30.3722 118.076 30.2557 117.613 30.2557C117.132 30.2557 116.756 30.3608 116.483 30.571C116.211 30.7812 116.019 31.0057 115.908 31.2443L114.953 30.9034C115.124 30.5057 115.351 30.196 115.635 29.9744C115.922 29.75 116.235 29.5937 116.573 29.5057C116.914 29.4148 117.249 29.3693 117.578 29.3693C117.789 29.3693 118.03 29.3949 118.303 29.446C118.578 29.4943 118.844 29.5952 119.1 29.7486C119.358 29.902 119.573 30.1335 119.743 30.4432C119.914 30.7528 119.999 31.1676 119.999 31.6875V36H118.993V35.1136H118.942C118.874 35.2557 118.76 35.4077 118.601 35.5696C118.442 35.7315 118.23 35.8693 117.966 35.983C117.702 36.0966 117.38 36.1534 116.999 36.1534ZM117.152 35.25C117.55 35.25 117.885 35.1719 118.158 35.0156C118.434 34.8594 118.641 34.6577 118.78 34.4105C118.922 34.1634 118.993 33.9034 118.993 33.6307V32.7102C118.951 32.7614 118.857 32.8082 118.712 32.8509C118.57 32.8906 118.405 32.9261 118.218 32.9574C118.033 32.9858 117.853 33.0114 117.676 33.0341C117.503 33.054 117.363 33.071 117.255 33.0852C116.993 33.1193 116.749 33.1747 116.522 33.2514C116.297 33.3253 116.115 33.4375 115.976 33.5881C115.84 33.7358 115.772 33.9375 115.772 34.1932C115.772 34.5426 115.901 34.8068 116.159 34.9858C116.421 35.1619 116.752 35.25 117.152 35.25ZM125.414 34.6364L127.698 29.4545H128.653L125.823 36H125.005L122.227 29.4545H123.164L125.414 34.6364ZM122.84 29.4545V36H121.835V29.4545H122.84ZM127.988 36V29.4545H128.994V36H127.988Z" fill="white"/>
<path d="M22.2 33.1999H17.4C16.0745 33.1999 15 32.1254 15 30.7999L15.0001 16.4C15.0001 15.0745 16.0746 14 17.4001 14H28.2004C29.5258 14 30.6004 15.0745 30.6004 16.4V23M25.8004 29.8L28.0004 32L32.8004 27.1998M19.2004 18.8H26.4004M19.2004 22.4H26.4004M19.2004 26H22.8004" stroke="#FF2140" stroke-width="1.5" stroke-linecap="round" stroke-linejoin="round"/>
</svg>
